<svg width="217" height="41" viewBox="0 0 217 41" fill="none" xmlns="http://www.w3.org/2000/svg">
<g clip-path="url(#clip0_1001_3447)">
<mask id="mask0_1001_3447" style="mask-type:alpha" maskUnits="userSpaceOnUse" x="50" y="0" width="41" height="41">
<path d="M70.7778 40.0967C79.6389 40.0967 84.5655 40.0967 87.7828 36.9147C91 33.7327 91 28.8636 91 20.0967C91 11.3297 91 6.46062 87.7828 3.27866C84.5655 0.0966797 79.6389 0.0966797 70.7778 0.0966797C61.9163 0.0966797 56.9902 0.0966797 53.7729 3.27866C50.5555 6.46062 50.5555 11.3326 50.5555 20.0967C50.5555 28.8607 50.5555 33.7327 53.7729 36.9147C56.9902 40.0967 61.9163 40.0967 70.7778 40.0967Z" fill="url(#paint0_linear_1001_3447)"/>
</mask>
<g mask="url(#mask0_1001_3447)">
<path d="M91.4021 -0.282227H50.1803V40.4866H91.4021V-0.282227Z" fill="white"/>
</g>
<path d="M78.3725 16.1421C76.8445 16.1421 75.7107 17.3084 75.7107 18.7474C75.7107 19.9224 76.5462 20.8392 77.6041 21.1105L75.4359 24.3948H77.4606L79.304 21.3383H80.6835V24.3948H82.374V16.1421H78.3725ZM78.6051 19.942C77.9099 19.942 77.4789 19.4024 77.4789 18.7873C77.4789 18.1722 77.8739 17.5862 78.6051 17.5862H80.6854V19.942H78.6051Z" fill="#0E0E0E"/>
<path d="M69.1145 16.1421L68.5533 17.6696L70.8555 17.6565L69.4924 22.6018C69.1038 24.0437 70.623 25.1332 71.9197 24.2852L74.869 22.3066L74.0007 21.0445L71.0552 23.0623L73.0401 16.1421H69.1145Z" fill="#0E0E0E"/>
<path d="M72.2906 15.0812C72.9365 15.0812 73.4604 14.6145 73.4604 14.0389C73.4604 13.4633 72.9365 12.9966 72.2906 12.9966C71.6448 12.9966 71.1209 13.4633 71.1209 14.0389C71.1209 14.6145 71.6448 15.0812 72.2906 15.0812Z" fill="#0E0E0E"/>
<path d="M66.3232 22.8719V14.2246H59.8366V18.8398C59.8366 21.0114 59.2007 22.354 58.826 22.8682H58.0574V26.6399H59.7024V24.4103H65.8524V26.6435H67.4967V22.8719H66.3232ZM61.472 18.7448V15.7587H64.6365V22.8668H60.5517C60.922 22.2677 61.472 20.743 61.472 18.7448Z" fill="#0E0E0E"/>
<path d="M4.01984 4.04007L4.02085 4.03909C5.48994 2.6044 7.36675 1.85972 10.0168 1.48047C12.6882 1.09818 16.0657 1.09668 20.4964 1.09668C24.9269 1.09668 28.3045 1.09817 30.977 1.47962C33.628 1.858 35.5069 2.601 36.9796 4.03247C38.4525 5.46759 39.2169 7.29834 39.6061 9.88136C39.9985 12.4852 40 15.7761 40 20.0931C40 24.4102 39.9985 27.701 39.6061 30.3049C39.2169 32.8879 38.4525 34.7187 36.9796 36.1538C35.5069 37.5888 33.6262 38.3336 30.9741 38.7129C28.3008 39.0952 24.9233 39.0967 20.4964 39.0967C16.0693 39.0967 12.6919 39.0952 10.0195 38.7129C7.36839 38.3336 5.48984 37.5889 4.02085 36.1543L4.02035 36.1538C2.54756 34.7188 1.78316 32.8863 1.39391 30.3023C1.00153 27.6975 1 24.4066 1 20.0931C1 15.7796 1.00153 12.4888 1.3939 9.88492C1.78315 7.30177 2.5475 5.47139 4.01984 4.04007Z" stroke="white" stroke-width="2"/>
<path d="M19.3514 32.9501C17.8986 31.8546 16.8272 30.2202 16.4822 28.3165H11.7971V8.29137C14.3212 9.53056 16.119 12.2784 16.3369 15.1161L17.0452 20.7374L16.7001 20.6836C15.9374 20.6836 15.2837 21.384 15.2837 22.0844C15.2837 22.731 15.7921 23.2877 16.4459 23.4314L17.2994 23.629C18.7158 20.9889 19.5148 18.4027 19.5148 15.8524C19.5148 13.5536 19.2061 11.2727 19.1698 8.93787C19.1698 7.89625 19.5693 6.94437 20.223 6.20801C20.8768 6.96231 21.2763 7.89625 21.2763 8.93787C21.2763 11.2727 20.9312 13.5715 20.9312 15.8524C20.9312 18.3847 21.7303 20.9889 23.1467 23.629L24.0002 23.4314C24.6539 23.2877 25.1624 22.731 25.1624 22.0844C25.1624 21.384 24.5086 20.6836 23.7459 20.6836L23.4009 20.7374L24.1091 15.1161C24.4541 12.2784 26.1248 9.53056 28.6489 8.29137V28.3165H23.9638C23.6188 30.2022 22.6019 31.9084 21.0947 32.9501C20.7496 33.2016 20.4409 33.5069 20.2412 33.902C20.0051 33.4889 19.6964 33.2016 19.3514 32.9501ZM14.0125 21.402C14.2123 20.6477 14.7752 20.0011 15.4653 19.606L14.9024 14.9724C14.7026 13.5356 14.1033 12.2425 13.1954 11.1829V21.384H14.0125V21.402ZM16.3914 26.9156C16.3914 26.2152 16.5004 25.5686 16.6457 24.9221L15.9919 24.7784C15.0295 24.4731 14.285 23.7367 14.0307 22.7849H13.2317V26.9156H16.3914ZM19.4967 26.9156C19.4967 26.0715 18.8429 25.3172 17.9894 25.2274C17.8441 25.7662 17.7352 26.3229 17.7352 26.9156H19.4967ZM19.4967 28.3165H17.9349C18.1892 29.4121 18.734 30.3998 19.4967 31.2619V28.3165ZM21.7121 23.9882C21.1128 22.8926 20.5499 21.7432 20.2049 20.5579C19.8598 21.7612 19.2969 22.8926 18.6976 23.9882C19.2969 24.1319 19.8054 24.527 20.2049 24.976C20.6044 24.527 21.1128 24.1319 21.7121 23.9882ZM22.6745 26.9156C22.6745 26.3229 22.5656 25.7662 22.4203 25.2274C21.5668 25.3352 20.9131 26.0715 20.9131 26.9156H22.6745ZM22.4748 28.3165H20.9131V31.2619C21.6758 30.3998 22.2205 29.4121 22.4748 28.3165ZM27.2144 26.9156V22.7849H26.4154C26.1612 23.7367 25.4166 24.4731 24.4541 24.7784L23.8004 24.9221C23.9457 25.5686 24.0546 26.2152 24.0546 26.9156H27.2144ZM27.2144 21.402V11.2008C26.3064 12.2425 25.6527 13.5356 25.5074 14.9903L24.9445 19.6239C25.6527 20.0191 26.1974 20.6656 26.3972 21.4199H27.2144V21.402Z" fill="white"/>
</g>
<path d="M102.314 24.8955C101.438 23.9808 101 22.8223 101 21.4199C101 20.0174 101.438 18.8589 102.314 17.9442C103.19 17.0296 104.282 16.5723 105.59 16.5723C107.053 16.5723 108.247 17.1394 109.171 18.2735C109.567 18.7979 109.843 19.3589 109.999 19.9564H108.019C107.935 19.6516 107.779 19.3772 107.551 19.1333C107.083 18.5845 106.43 18.3101 105.59 18.3101C104.918 18.3101 104.348 18.5174 103.88 18.932C103.412 19.3345 103.112 19.8894 102.98 20.5967H106.22V22.3345H102.98C103.124 23.0052 103.442 23.5418 103.934 23.9442C104.426 24.3345 104.978 24.5296 105.59 24.5296C106.454 24.5296 107.131 24.2552 107.623 23.7064C107.839 23.4625 108.001 23.1881 108.109 22.8833H109.999C109.843 23.5052 109.567 24.0723 109.171 24.5845C108.259 25.7064 107.065 26.2674 105.59 26.2674C104.282 26.2674 103.19 25.8101 102.314 24.8955Z" fill="white"/>
<path d="M111.703 26.0845V13.2796H117.913C119.101 13.2796 120.043 13.5967 120.739 14.2308C121.435 14.8528 121.783 15.6333 121.783 16.5723C121.783 17.5113 121.465 18.2308 120.829 18.7308C120.565 18.9381 120.253 19.1028 119.893 19.2247V19.3162C120.337 19.4138 120.727 19.5784 121.063 19.8101C121.843 20.3833 122.233 21.2552 122.233 22.4259C122.233 23.5113 121.849 24.3955 121.081 25.0784C120.313 25.7491 119.227 26.0845 117.823 26.0845H111.703ZM113.773 18.493H117.823C118.399 18.493 118.843 18.3467 119.155 18.054C119.467 17.7613 119.623 17.3528 119.623 16.8284C119.623 16.365 119.467 15.993 119.155 15.7125C118.843 15.432 118.399 15.2918 117.823 15.2918H113.773V18.493ZM113.773 24.0723H117.733C119.293 24.0723 120.073 23.4625 120.073 22.243C120.073 21.0235 119.293 20.4138 117.733 20.4138H113.773V24.0723Z" fill="white"/>
<path d="M124.358 15.054C124.142 14.8345 124.034 14.5662 124.034 14.2491C124.034 13.932 124.142 13.6638 124.358 13.4442C124.574 13.2125 124.838 13.0967 125.15 13.0967C125.462 13.0967 125.726 13.2125 125.942 13.4442C126.17 13.6638 126.284 13.932 126.284 14.2491C126.284 14.5662 126.17 14.8345 125.942 15.054C125.726 15.2735 125.462 15.3833 125.15 15.3833C124.838 15.3833 124.574 15.2735 124.358 15.054ZM124.214 26.0845V16.7552H126.104V26.0845H124.214Z" fill="white"/>
<path d="M127.266 28.0967V24.3467H128.166L130.236 16.7552H134.286L136.356 24.3467H137.256V28.0967H135.546V26.0845H128.976V28.0967H127.266ZM130.146 24.3467H134.376L132.846 18.493H131.676L130.146 24.3467Z" fill="white"/>
<path d="M138.433 26.0845V16.7552H140.323V20.5052H144.823V16.7552H146.713V26.0845H144.823V22.243H140.323V26.0845H138.433Z" fill="white"/>
<path d="M149.702 24.8772C148.79 23.9381 148.334 22.7857 148.334 21.4199C148.334 20.054 148.79 18.9077 149.702 17.9808C150.626 17.0418 151.76 16.5723 153.103 16.5723C154.447 16.5723 155.575 17.0418 156.487 17.9808C157.411 18.9077 157.873 20.054 157.873 21.4199C157.873 22.7857 157.411 23.9381 156.487 24.8772C155.575 25.804 154.447 26.2674 153.103 26.2674C151.76 26.2674 150.626 25.804 149.702 24.8772ZM151.088 19.1699C150.572 19.7308 150.314 20.4808 150.314 21.4199C150.314 22.3589 150.572 23.115 151.088 23.6881C151.604 24.2491 152.275 24.5296 153.103 24.5296C153.931 24.5296 154.603 24.2491 155.119 23.6881C155.635 23.115 155.893 22.3589 155.893 21.4199C155.893 20.4808 155.635 19.7308 155.119 19.1699C154.603 18.5967 153.931 18.3101 153.103 18.3101C152.275 18.3101 151.604 18.5967 151.088 19.1699Z" fill="white"/>
<path d="M159.49 26.0845V16.7552H164.08C164.956 16.7552 165.64 16.9686 166.131 17.3955C166.623 17.8223 166.869 18.3711 166.869 19.0418C166.869 19.7613 166.629 20.3162 166.149 20.7064C165.909 20.8894 165.67 21.0052 165.43 21.054V21.1272C165.741 21.1759 166.041 21.2979 166.329 21.493C166.929 21.9077 167.229 22.5479 167.229 23.4138C167.229 24.1699 166.947 24.804 166.383 25.3162C165.819 25.8284 165.082 26.0845 164.17 26.0845H159.49ZM161.38 20.4138H163.9C164.62 20.4138 164.98 20.0784 164.98 19.4077C164.98 18.7979 164.62 18.493 163.9 18.493H161.38V20.4138ZM161.38 24.3467H164.08C164.476 24.3467 164.782 24.243 164.998 24.0357C165.226 23.8162 165.34 23.5235 165.34 23.1577C165.34 22.8284 165.226 22.5662 164.998 22.3711C164.782 22.1638 164.476 22.0601 164.08 22.0601H161.38V24.3467Z" fill="white"/>
<path d="M167.956 26.0845L170.476 16.7552H174.526L177.046 26.0845H175.066L173.086 18.493H171.916L169.936 26.0845H167.956Z" fill="white"/>
<path d="M179.019 24.8772C178.119 23.9381 177.669 22.7857 177.669 21.4199C177.669 20.054 178.119 18.9077 179.019 17.9808C179.931 17.0418 181.041 16.5723 182.349 16.5723C183.657 16.5723 184.761 17.0418 185.66 17.9808C186.572 18.9077 187.028 20.054 187.028 21.4199V22.0601H179.559C179.703 22.8284 180.033 23.432 180.549 23.8711C181.065 24.3101 181.665 24.5296 182.349 24.5296C183.189 24.5296 183.861 24.3162 184.365 23.8894C184.593 23.7186 184.791 23.5052 184.959 23.2491H186.938C186.686 23.8467 186.368 24.3528 185.984 24.7674C185.001 25.7674 183.789 26.2674 182.349 26.2674C181.041 26.2674 179.931 25.804 179.019 24.8772ZM179.649 20.5052H185.049C184.941 19.8955 184.653 19.3772 184.185 18.9503C183.729 18.5235 183.117 18.3101 182.349 18.3101C181.701 18.3101 181.125 18.5113 180.621 18.9138C180.117 19.304 179.793 19.8345 179.649 20.5052Z" fill="white"/>
<path d="M188.65 26.0845V16.7552H190.539V20.5052H195.039V16.7552H196.929V26.0845H195.039V22.243H190.539V26.0845H188.65Z" fill="white"/>
<path d="M199.09 26.0845V16.7552H200.98V20.5052H205.48V16.7552H207.369V26.0845H205.48V22.243H200.98V26.0845H199.09Z" fill="white"/>
<path d="M209.171 26.0845L210.971 22.7003C210.659 22.554 210.371 22.3589 210.107 22.115C209.543 21.5662 209.261 20.8467 209.261 19.9564C209.261 19.0174 209.585 18.2491 210.233 17.6516C210.881 17.054 211.756 16.7552 212.86 16.7552H217V26.0845H215.11V23.2491H212.77L211.33 26.0845H209.171ZM211.24 19.9564C211.24 20.4442 211.384 20.8284 211.672 21.1089C211.96 21.3772 212.386 21.5113 212.95 21.5113H215.11V18.493H212.95C212.422 18.493 212.002 18.6333 211.69 18.9138C211.39 19.182 211.24 19.5296 211.24 19.9564Z" fill="white"/>
<defs>
<linearGradient id="paint0_linear_1001_3447" x1="50.5555" y1="12.3439" x2="91" y2="12.3439" gradientUnits="userSpaceOnUse">
<stop stop-color="#13C7FF"/>
<stop offset="1" stop-color="#FFFF36"/>
</linearGradient>
<clipPath id="clip0_1001_3447">
<rect width="91" height="40" fill="white" transform="translate(0 0.0966797)"/>
</clipPath>
</defs>
</svg>
