<svg width="146" height="64" viewBox="0 0 146 64" fill="none" xmlns="http://www.w3.org/2000/svg">
<g clip-path="url(#clip0_1641_10480)">
<mask id="mask0_1641_10480" style="mask-type:luminance" maskUnits="userSpaceOnUse" x="0" y="0" width="146" height="64">
<path d="M145.727 0H0.272705V64H145.727V0Z" fill="white"/>
</mask>
<g mask="url(#mask0_1641_10480)">
<path fill-rule="evenodd" clip-rule="evenodd" d="M2.72292 21.1847V64H38.1399C46.5052 64 53.2867 57.2108 53.2867 48.8362V18.0627C53.2867 9.68797 46.5052 2.89893 38.1399 2.89893H21.6565V16.2787H29.4527C34.9887 16.2787 39.4763 20.7714 39.4763 26.3135V40.5853C39.4763 46.1275 34.9887 50.6202 29.4527 50.6202H16.756V21.1847H2.72292Z" fill="#F47A00"/>
<path d="M31.9029 28.0977C31.9029 25.6344 29.9084 23.6377 27.448 23.6377C24.9875 23.6377 22.993 25.6344 22.993 28.0977V40.1394C22.993 42.6026 24.9875 44.5994 27.448 44.5994C29.9084 44.5994 31.9029 42.6026 31.9029 40.1394V28.0977Z" fill="#F47A00"/>
<path d="M17.6471 0H2.05469C1.07052 0 0.272705 0.798709 0.272705 1.78398V16.9477C0.272705 17.933 1.07052 18.7317 2.05469 18.7317H17.6471C18.6312 18.7317 19.4291 17.933 19.4291 16.9477V1.78398C19.4291 0.798709 18.6312 0 17.6471 0Z" fill="white"/>
<path d="M65.5572 63.34V34.7195H56.4052V63.34H65.5572Z" fill="#F47A00"/>
<path d="M69.1213 34.7194H75.5992C79.9182 34.7194 82.8386 34.855 84.3598 35.1262C85.8962 35.3971 87.1424 36.0924 88.0992 37.212C89.0697 38.3199 89.5553 40.0936 89.5553 42.533C89.5553 44.7605 89.2151 46.2572 88.5341 47.0233C87.8522 47.7892 86.5121 48.2488 84.5121 48.402C86.3235 48.7675 87.5409 49.2566 88.1644 49.8693C88.7871 50.4821 89.1712 51.0479 89.3166 51.5663C89.4757 52.0732 89.5553 53.4814 89.5553 55.7915V63.3399H81.0553V53.8291C81.0553 52.2971 80.9038 51.3485 80.5992 50.983C80.3091 50.6177 79.5341 50.4351 78.2727 50.4351V63.3399H69.1213V34.7194ZM78.2727 39.6162V45.9803C79.3022 45.9803 80.0197 45.8684 80.425 45.6445C80.8454 45.4088 81.0553 44.6603 81.0553 43.3993V41.8259C81.0553 40.9185 80.853 40.3233 80.4469 40.0406C80.056 39.7575 79.331 39.6162 78.2727 39.6162ZM114.033 51.478C114.033 54.3536 113.946 56.3925 113.773 57.5946C113.613 58.7848 113.092 59.875 112.208 60.8651C111.338 61.8549 110.157 62.615 108.664 63.1454C107.171 63.6757 105.432 63.9409 103.446 63.9409C101.563 63.9409 99.8666 63.6933 98.3598 63.1983C96.8666 62.6916 95.6644 61.9372 94.7507 60.9355C93.8379 59.9339 93.2947 58.8438 93.1204 57.6653C92.9469 56.4867 92.8598 54.4242 92.8598 51.478V46.5812C92.8598 43.7057 92.9394 41.6727 93.0985 40.4825C93.2727 39.2804 93.7947 38.1843 94.6644 37.1944C95.5485 36.2044 96.7363 35.4443 98.2288 34.9139C99.7219 34.3836 101.461 34.1184 103.446 34.1184C105.33 34.1184 107.019 34.3718 108.512 34.8786C110.019 35.3734 111.229 36.1218 112.142 37.1238C113.055 38.1254 113.598 39.2155 113.773 40.394C113.946 41.5725 114.033 43.635 114.033 46.5812V51.478ZM104.882 42.0734C104.882 40.7417 104.787 39.8931 104.598 39.5279C104.425 39.1508 104.055 38.9621 103.49 38.9621C103.011 38.9621 102.642 39.1153 102.381 39.4218C102.135 39.7163 102.012 40.6002 102.012 42.0734V55.4378C102.012 57.0996 102.092 58.1249 102.251 58.5138C102.425 58.9027 102.816 59.0972 103.425 59.0972C104.048 59.0972 104.447 58.873 104.62 58.4253C104.795 57.9775 104.882 56.9111 104.882 55.2257V42.0734ZM145.707 34.7194V63.3399H137.707V44.0179L134.511 63.3399H128.837L125.468 44.4599V63.3399H117.468V34.7194H129.316C129.664 36.44 130.033 38.4671 130.424 40.8008L131.685 48.0838L133.772 34.7194H145.707Z" fill="white"/>
</g>
</g>
<defs>
<clipPath id="clip0_1641_10480">
<rect width="145.455" height="64" fill="white" transform="translate(0.272705)"/>
</clipPath>
</defs>
</svg>
