<svg width="26" height="27" viewBox="0 0 26 27" fill="none" xmlns="http://www.w3.org/2000/svg">
<path d="M23.8009 19.9543C23.8009 20.3443 23.7142 20.7451 23.53 21.1351C23.3459 21.5251 23.1075 21.8934 22.7934 22.2401C22.2625 22.8251 21.6775 23.2476 21.0167 23.5184C20.3667 23.7893 19.6625 23.9301 18.9042 23.9301C17.7992 23.9301 16.6184 23.6701 15.3725 23.1393C14.1267 22.6084 12.8809 21.8934 11.6459 20.9943C10.4 20.0843 9.21919 19.0768 8.09252 17.9609C6.97669 16.8343 5.96919 15.6534 5.07002 14.4184C4.18169 13.1834 3.46669 11.9484 2.94669 10.7243C2.42669 9.48926 2.16669 8.30843 2.16669 7.18176C2.16669 6.44509 2.29669 5.74093 2.55669 5.09093C2.81669 4.43009 3.22835 3.82343 3.80252 3.28176C4.49585 2.59926 5.25419 2.26343 6.05585 2.26343C6.35919 2.26343 6.66252 2.32843 6.93335 2.45843C7.21502 2.58843 7.46419 2.78343 7.65919 3.06509L10.1725 6.60759C10.3675 6.87843 10.5084 7.12759 10.6059 7.36593C10.7034 7.59343 10.7575 7.82093 10.7575 8.02676C10.7575 8.28676 10.6817 8.54676 10.53 8.79593C10.3892 9.04509 10.1834 9.30509 9.92335 9.56509L9.10002 10.4209C8.98085 10.5401 8.92669 10.6809 8.92669 10.8543C8.92669 10.9409 8.93752 11.0168 8.95919 11.1034C8.99169 11.1901 9.02419 11.2551 9.04585 11.3201C9.24085 11.6776 9.57669 12.1434 10.0534 12.7068C10.5409 13.2701 11.0609 13.8443 11.6242 14.4184C12.2092 14.9926 12.7725 15.5234 13.3467 16.0109C13.91 16.4876 14.3759 16.8126 14.7442 17.0076C14.7984 17.0293 14.8634 17.0618 14.9392 17.0943C15.0259 17.1268 15.1125 17.1376 15.21 17.1376C15.3942 17.1376 15.535 17.0726 15.6542 16.9534L16.4775 16.1409C16.7484 15.8701 17.0084 15.6643 17.2575 15.5343C17.5067 15.3826 17.7559 15.3068 18.0267 15.3068C18.2325 15.3068 18.4492 15.3501 18.6875 15.4476C18.9259 15.5451 19.175 15.6859 19.4459 15.8701L23.0317 18.4159C23.3134 18.6109 23.5084 18.8384 23.6275 19.1093C23.7359 19.3801 23.8009 19.6509 23.8009 19.9543Z" fill="#F47A00"/>
</svg>
