<svg width="25" height="24" viewBox="0 0 25 24" fill="none" xmlns="http://www.w3.org/2000/svg">
<path d="M9.93817 20.6272C9.93817 21.1681 9.53937 21.5204 9.15024 21.5204C8.76111 21.5204 8.3623 21.1681 8.3623 20.6272C8.3623 20.0862 8.76111 19.7339 9.15024 19.7339C9.53937 19.7339 9.93817 20.0862 9.93817 20.6272Z" fill="white" stroke="white" stroke-width="1.5"/>
<path d="M19.9343 20.6272C19.9343 21.1681 19.5355 21.5204 19.1463 21.5204C18.7572 21.5204 18.3584 21.1681 18.3584 20.6272C18.3584 20.0862 18.7572 19.7339 19.1463 19.7339C19.5355 19.7339 19.9343 20.0862 19.9343 20.6272Z" fill="white" stroke="white" stroke-width="1.5"/>
<path d="M5.52644 5.8377H22.7705L20.2329 15.3276C20.1424 15.6721 19.9485 15.9752 19.6811 16.1904C19.4136 16.4057 19.0875 16.5211 18.7527 16.519H9.54429C9.20948 16.5211 8.88331 16.4057 8.61588 16.1904C8.34845 15.9752 8.15456 15.6721 8.06402 15.3276L4.58445 2.32518C4.53847 2.15341 4.44134 2.00234 4.30779 1.89484C4.17423 1.78735 4.01153 1.7293 3.84432 1.72949H2.22949" stroke="white" stroke-width="2" stroke-linecap="round" stroke-linejoin="round"/>
</svg>
