<svg width="16" height="17" viewBox="0 0 16 17" fill="none" xmlns="http://www.w3.org/2000/svg">
<path d="M15 15.0967V1.09668H1V15.0967H15Z" fill="white" stroke="white" stroke-width="2"/>
<path d="M7.42768 12.1138H8.57265M10.8693 12.1138H12.0142M3.99275 12.1138H5.13772M7.42768 8.67887H8.57265M10.8693 8.67887H12.0142M3.99275 8.67887H5.13772M1.13031 5.80671H14.8767M11.4417 4.08924V1.2268M4.56525 4.08924V1.2268M3.42689 14.9666H12.5801C13.8485 14.9666 14.8767 13.9383 14.8767 12.6699V4.66838C14.8767 3.40001 13.8485 2.37177 12.5801 2.37177H3.42689C2.15852 2.37177 1.13031 3.40001 1.13031 4.66838V12.6699C1.13031 13.9383 2.15852 14.9666 3.42689 14.9666Z" stroke="white" stroke-width="1.5" stroke-miterlimit="10" stroke-linecap="round" stroke-linejoin="round"/>
</svg>
