<svg width="21" height="21" viewBox="0 0 21 21" fill="none" xmlns="http://www.w3.org/2000/svg">
<path fill-rule="evenodd" clip-rule="evenodd" d="M4.43281 13.6635C4.87464 13.6635 5.23281 14.0216 5.23281 14.4635V16.0635C5.23281 16.2756 5.31708 16.4791 5.46714 16.6291C5.61716 16.7791 5.82063 16.8635 6.03281 16.8635H15.6328C15.845 16.8635 16.0484 16.7792 16.1985 16.6291C16.3486 16.4791 16.4328 16.2756 16.4328 16.0635V14.4635C16.4328 14.0216 16.791 13.6635 17.2328 13.6635C17.6746 13.6635 18.0328 14.0216 18.0328 14.4635V16.0635C18.0328 16.6999 17.78 17.3104 17.3298 17.7605C16.8798 18.2106 16.2693 18.4635 15.6328 18.4635H6.03281C5.39631 18.4635 4.78584 18.2107 4.33574 17.7605C3.88568 17.3104 3.63281 16.6999 3.63281 16.0635V14.4635C3.63281 14.0216 3.99098 13.6635 4.43281 13.6635Z" fill="#111111"/>
<path fill-rule="evenodd" clip-rule="evenodd" d="M6.26752 9.09784C6.57994 8.78542 7.08647 8.78542 7.39889 9.09784L10.8332 12.5322L14.2675 9.09784C14.5799 8.78542 15.0865 8.78542 15.3989 9.09784C15.7113 9.41024 15.7113 9.9168 15.3989 10.2292L11.3989 14.2292C11.0865 14.5416 10.5799 14.5416 10.2675 14.2292L6.26752 10.2292C5.9551 9.9168 5.9551 9.41024 6.26752 9.09784Z" fill="#111111"/>
<path fill-rule="evenodd" clip-rule="evenodd" d="M10.8332 3.26343C11.275 3.26343 11.6332 3.6216 11.6332 4.06343V13.6634C11.6332 14.1053 11.275 14.4634 10.8332 14.4634C10.3914 14.4634 10.0332 14.1053 10.0332 13.6634V4.06343C10.0332 3.6216 10.3914 3.26343 10.8332 3.26343Z" fill="#111111"/>
</svg>
