<svg width="16" height="19" viewBox="0 0 16 19" fill="none" xmlns="http://www.w3.org/2000/svg">
<path fill-rule="evenodd" clip-rule="evenodd" d="M15.0247 16.1665C15.0247 16.774 14.7831 17.3573 14.3539 17.7873C13.9239 18.2165 13.3406 18.4582 12.7331 18.4582H2.73307C2.12557 18.4582 1.54224 18.2165 1.11224 17.7873C0.683073 17.3573 0.441406 16.774 0.441406 16.1665V2.83317C0.441406 2.22567 0.683073 1.64234 1.11224 1.21234C1.54224 0.783171 2.12557 0.541504 2.73307 0.541504H9.88807C10.2747 0.541504 10.6456 0.694837 10.9189 0.969004L14.5972 4.64734C14.8714 4.92067 15.0247 5.2915 15.0247 5.67817V16.1665ZM13.7747 16.1665V5.67817C13.7747 5.62317 13.7531 5.56984 13.7139 5.53067L10.0356 1.85234C9.99641 1.81317 9.94307 1.7915 9.88807 1.7915H2.73307C2.45641 1.7915 2.19224 1.9015 1.99641 2.0965C1.80141 2.29234 1.69141 2.5565 1.69141 2.83317V16.1665C1.69141 16.4432 1.80141 16.7073 1.99641 16.9032C2.19224 17.0982 2.45641 17.2082 2.73307 17.2082H12.7331C13.0097 17.2082 13.2739 17.0982 13.4697 16.9032C13.6647 16.7073 13.7747 16.4432 13.7747 16.1665Z" fill="#111111"/>
<path fill-rule="evenodd" clip-rule="evenodd" d="M9.60742 1.58301C9.60742 1.23801 9.88742 0.958008 10.2324 0.958008C10.5774 0.958008 10.8574 1.23801 10.8574 1.58301V4.49967C10.8574 4.61467 10.9508 4.70801 11.0658 4.70801H13.9824C14.3274 4.70801 14.6074 4.98801 14.6074 5.33301C14.6074 5.67801 14.3274 5.95801 13.9824 5.95801H11.0658C10.2599 5.95801 9.60742 5.30551 9.60742 4.49967V1.58301Z" fill="#111111"/>
<path fill-rule="evenodd" clip-rule="evenodd" d="M4.40039 8.875C4.05539 8.875 3.77539 8.595 3.77539 8.25C3.77539 7.905 4.05539 7.625 4.40039 7.625H11.0671C11.4121 7.625 11.6921 7.905 11.6921 8.25C11.6921 8.595 11.4121 8.875 11.0671 8.875H4.40039Z" fill="#111111"/>
<path fill-rule="evenodd" clip-rule="evenodd" d="M4.40039 11.7915C4.05539 11.7915 3.77539 11.5115 3.77539 11.1665C3.77539 10.8215 4.05539 10.5415 4.40039 10.5415H11.0671C11.4121 10.5415 11.6921 10.8215 11.6921 11.1665C11.6921 11.5115 11.4121 11.7915 11.0671 11.7915H4.40039Z" fill="#111111"/>
<path fill-rule="evenodd" clip-rule="evenodd" d="M4.40039 14.708C4.05539 14.708 3.77539 14.428 3.77539 14.083C3.77539 13.738 4.05539 13.458 4.40039 13.458H8.15039C8.49539 13.458 8.77539 13.738 8.77539 14.083C8.77539 14.428 8.49539 14.708 8.15039 14.708H4.40039Z" fill="#111111"/>
</svg>
