<svg width="20" height="21" viewBox="0 0 20 21" fill="none" xmlns="http://www.w3.org/2000/svg">
<path fill-rule="evenodd" clip-rule="evenodd" d="M10.0011 0.097168C7.2853 0.097168 6.94447 0.109043 5.87781 0.157584C4.81324 0.206334 4.08658 0.374874 3.45075 0.622163C2.79305 0.877577 2.23514 1.21924 1.67931 1.77528C1.12306 2.33111 0.781401 2.88902 0.525153 3.54651C0.277239 4.18255 0.10849 4.90942 0.060574 5.97357C0.0128661 7.04023 0.000366211 7.38127 0.000366211 10.0971C0.000366211 12.8129 0.0124494 13.1527 0.0607823 14.2193C0.10974 15.2839 0.27828 16.0106 0.525361 16.6464C0.780984 17.3041 1.12265 17.862 1.67868 18.4178C2.2343 18.9741 2.79222 19.3166 3.4495 19.572C4.08575 19.8193 4.81261 19.9878 5.87698 20.0366C6.94364 20.0851 7.28426 20.097 9.99986 20.097C12.7159 20.097 13.0557 20.0851 14.1223 20.0366C15.1869 19.9878 15.9144 19.8193 16.5506 19.572C17.2081 19.3166 17.7652 18.9741 18.3208 18.4178C18.8771 17.862 19.2187 17.3041 19.475 16.6466C19.7208 16.0106 19.8896 15.2837 19.9396 14.2195C19.9875 13.1529 20 12.8129 20 10.0971C20 7.38127 19.9875 7.04044 19.9396 5.97378C19.8896 4.90921 19.7208 4.18255 19.475 3.54672C19.2187 2.88902 18.8771 2.33111 18.3208 1.77528C17.7646 1.21903 17.2083 0.877369 16.55 0.622163C15.9125 0.374874 15.1854 0.206334 14.1209 0.157584C13.0542 0.109043 12.7146 0.097168 9.99798 0.097168H10.0011ZM9.10392 1.89941C9.27811 1.89913 9.46549 1.89922 9.66771 1.89931L10.001 1.89941C12.671 1.89941 12.9874 1.90899 14.0418 1.95691C15.0168 2.00149 15.5459 2.1644 15.8984 2.30128C16.3651 2.48253 16.6978 2.69919 17.0476 3.04919C17.3976 3.39918 17.6143 3.73252 17.7959 4.19918C17.9328 4.55126 18.0959 5.08042 18.1403 6.05541C18.1882 7.10957 18.1986 7.42623 18.1986 10.095C18.1986 12.7637 18.1882 13.0803 18.1403 14.1345C18.0957 15.1095 17.9328 15.6387 17.7959 15.9907C17.6147 16.4574 17.3976 16.7897 17.0476 17.1395C16.6976 17.4895 16.3653 17.7061 15.8984 17.8874C15.5464 18.0249 15.0168 18.1874 14.0418 18.232C12.9876 18.2799 12.671 18.2903 10.001 18.2903C7.33081 18.2903 7.01436 18.2799 5.9602 18.232C4.98521 18.187 4.45605 18.0241 4.10334 17.8872C3.63668 17.7059 3.30335 17.4893 2.95335 17.1393C2.60336 16.7893 2.38669 16.4568 2.20503 15.9899C2.06815 15.6378 1.90503 15.1087 1.86066 14.1337C1.81274 13.0795 1.80316 12.7628 1.80316 10.0925C1.80316 7.42206 1.81274 7.10707 1.86066 6.05291C1.90524 5.07792 2.06815 4.54876 2.20503 4.19626C2.38628 3.7296 2.60336 3.39627 2.95335 3.04627C3.30335 2.69627 3.63668 2.47961 4.10334 2.29795C4.45584 2.16045 4.98521 1.99795 5.9602 1.95316C6.88269 1.91149 7.24019 1.89899 9.10392 1.89691V1.89941ZM14.1389 4.75931C14.1389 4.09661 14.6764 3.55974 15.3389 3.55974V3.55932C16.0014 3.55932 16.5389 4.09681 16.5389 4.75931C16.5389 5.4218 16.0014 5.9593 15.3389 5.9593C14.6764 5.9593 14.1389 5.4218 14.1389 4.75931ZM10.0011 4.96158C7.16516 4.96169 4.86592 7.261 4.86592 10.0969C4.86592 12.933 7.16527 15.2313 10.0013 15.2313C12.8373 15.2313 15.1358 12.933 15.1358 10.0969C15.1358 7.26093 12.8371 4.96158 10.0011 4.96158ZM13.3346 10.0969C13.3346 8.25588 11.8421 6.7636 10.0012 6.7636C8.16022 6.7636 6.66794 8.25588 6.66794 10.0969C6.66794 11.9377 8.16022 13.4302 10.0012 13.4302C11.8421 13.4302 13.3346 11.9377 13.3346 10.0969Z" fill="white"/>
</svg>
