<svg width="20" height="18" viewBox="0 0 20 18" fill="none" xmlns="http://www.w3.org/2000/svg">
<path d="M0.769925 17.4778H4.51496V4.99527H0.769925V17.4778ZM15.36 4.56289C13.5425 4.56289 11.9162 5.22663 10.7625 6.69169V4.95422H7.00378V17.4779H10.7625V10.7054C10.7625 9.27416 12.0738 7.87789 13.7163 7.87789C15.3587 7.87789 15.7638 9.27415 15.7638 10.6704V17.4767H19.5088V10.3917C19.5087 5.47035 17.1787 4.56289 15.36 4.56289ZM2.62494 3.74784C3.65995 3.74784 4.49999 2.9078 4.49999 1.87278C4.49999 0.837768 3.65995 -0.00213623 2.62494 -0.00213623C1.58992 -0.00213623 0.749878 0.837905 0.749878 1.87292C0.749878 2.90794 1.58992 3.74784 2.62494 3.74784Z" fill="#0E76A8"/>
</svg>
