<svg width="25" height="24" viewBox="0 0 25 24" fill="none" xmlns="http://www.w3.org/2000/svg">
<path d="M22.7044 18.33C22.7044 18.69 22.6244 19.06 22.4544 19.42C22.2844 19.78 22.0644 20.12 21.7744 20.44C21.2844 20.98 20.7444 21.37 20.1344 21.62C19.5344 21.87 18.8844 22 18.1844 22C17.1644 22 16.0744 21.76 14.9244 21.27C13.7744 20.78 12.6244 20.12 11.4844 19.29C10.3344 18.45 9.24437 17.52 8.20437 16.49C7.17437 15.45 6.24437 14.36 5.41437 13.22C4.59437 12.08 3.93438 10.94 3.45438 9.81C2.97438 8.67 2.73438 7.58 2.73438 6.54C2.73438 5.86 2.85437 5.21 3.09437 4.61C3.33437 4 3.71438 3.44 4.24437 2.94C4.88437 2.31 5.58438 2 6.32438 2C6.60438 2 6.88438 2.06 7.13438 2.18C7.39438 2.3 7.62438 2.48 7.80438 2.74L10.1244 6.01C10.3044 6.26 10.4344 6.49 10.5244 6.71C10.6144 6.92 10.6644 7.13 10.6644 7.32C10.6644 7.56 10.5944 7.8 10.4544 8.03C10.3244 8.26 10.1344 8.5 9.89437 8.74L9.13437 9.53C9.02437 9.64 8.97437 9.77 8.97437 9.93C8.97437 10.01 8.98438 10.08 9.00438 10.16C9.03438 10.24 9.06438 10.3 9.08438 10.36C9.26438 10.69 9.57437 11.12 10.0144 11.64C10.4644 12.16 10.9444 12.69 11.4644 13.22C12.0044 13.75 12.5244 14.24 13.0544 14.69C13.5744 15.13 14.0044 15.43 14.3444 15.61C14.3944 15.63 14.4544 15.66 14.5244 15.69C14.6044 15.72 14.6844 15.73 14.7744 15.73C14.9444 15.73 15.0744 15.67 15.1844 15.56L15.9444 14.81C16.1944 14.56 16.4344 14.37 16.6644 14.25C16.8944 14.11 17.1244 14.04 17.3744 14.04C17.5644 14.04 17.7644 14.08 17.9844 14.17C18.2044 14.26 18.4344 14.39 18.6844 14.56L21.9944 16.91C22.2544 17.09 22.4344 17.3 22.5444 17.55C22.6444 17.8 22.7044 18.05 22.7044 18.33Z"    />
</svg>
