<svg width="22" height="22" viewBox="0 0 22 22" fill="none" xmlns="http://www.w3.org/2000/svg">
<path fill-rule="evenodd" clip-rule="evenodd" d="M10.9999 1.4375C15.2402 1.4375 18.6776 4.87492 18.6776 9.11518C18.6776 11.8722 17.2243 14.2899 15.0421 15.6439C13.5372 16.5776 12.4668 17.7334 11.6515 19.3056L10.9999 20.5623L10.3484 19.3056C9.53309 17.7333 8.46274 16.5776 6.9578 15.6439C4.77551 14.2899 3.32227 11.8723 3.32227 9.11518C3.32227 4.87492 6.75968 1.4375 10.9999 1.4375Z" stroke="white" stroke-width="2" stroke-miterlimit="22.9256" stroke-linecap="round" stroke-linejoin="round"/>
<path fill-rule="evenodd" clip-rule="evenodd" d="M10.9998 4.51074L12.4401 7.11754L15.3644 7.6818L13.3303 9.85715L13.6973 12.8127L10.9998 11.5503L8.30236 12.8127L8.66934 9.85715L6.63525 7.6818L9.55952 7.11754L10.9998 4.51074Z" stroke="white" stroke-width="2" stroke-miterlimit="22.9256" stroke-linecap="round" stroke-linejoin="round"/>
</svg>
