<svg width="22" height="22" viewBox="0 0 22 22" fill="none" xmlns="http://www.w3.org/2000/svg">
<g clip-path="url(#clip0_1641_14665)">
<path d="M11 7.61978C9.1332 7.61978 7.6198 9.13314 7.6198 11C7.6198 12.8668 9.1332 14.3802 11 14.3802C12.8668 14.3802 14.3802 12.8668 14.3802 11C14.3802 9.13314 12.8668 7.61978 11 7.61978ZM20.4876 8.58786L19.5724 9.34128C18.5284 10.2007 18.5284 11.7993 19.5724 12.6587L20.4876 13.4121C20.8119 13.6791 20.8957 14.1414 20.6856 14.5053L18.8785 17.6353C18.6684 17.9991 18.2262 18.1578 17.8328 18.0104L16.7227 17.5945C15.4564 17.1202 14.072 17.9194 13.8497 19.2532L13.6548 20.4225C13.5858 20.8369 13.2273 21.1406 12.8072 21.1406H9.19284C8.77278 21.1406 8.41425 20.8369 8.3452 20.4225L8.15029 19.2532C7.92801 17.9194 6.5436 17.1202 5.27736 17.5945L4.1673 18.0104C3.77388 18.1578 3.3316 17.9991 3.12153 17.6353L1.31439 14.5053C1.10436 14.1414 1.18811 13.6791 1.51244 13.4121L2.42767 12.6587C3.4716 11.7993 3.4716 10.2007 2.42767 9.34128L1.51244 8.58786C1.18811 8.32086 1.10436 7.85851 1.31439 7.4947L3.12153 4.36464C3.3316 4.00082 3.77388 3.84218 4.1673 3.98956L5.27736 4.40542C6.5436 4.87979 7.92801 4.08053 8.15029 2.74674L8.3452 1.57743C8.41425 1.16308 8.77278 0.859377 9.19284 0.859377H12.8072C13.2273 0.859377 13.5858 1.16308 13.6548 1.57743L13.8497 2.74674C14.072 4.08053 15.4564 4.87979 16.7227 4.40542L17.8328 3.98956C18.2262 3.84218 18.6684 4.00082 18.8785 4.36464L20.6856 7.4947C20.8957 7.85851 20.8119 8.32086 20.4876 8.58786Z" stroke="white" stroke-width="2" stroke-miterlimit="10" stroke-linecap="round" stroke-linejoin="round"/>
</g>
<defs>
<clipPath id="clip0_1641_14665">
<rect width="22" height="22" fill="white"/>
</clipPath>
</defs>
</svg>
