<svg width="25" height="25" viewBox="0 0 25 25" fill="none" xmlns="http://www.w3.org/2000/svg">
<path d="M23.7651 14.4729C24.5136 8.20028 23.4054 4.24023 21.4065 2.4491L21.4075 2.44806C18.1813 -0.610703 7.2855 -1.06343 3.42567 2.58544C1.6923 4.37032 1.08175 6.98989 1.01484 10.2329C0.947933 13.4769 0.868478 19.5538 6.55682 21.2023H6.56204L6.55682 23.7199C6.55682 23.7199 6.51813 24.7399 7.17259 24.9449C7.92114 25.1863 8.25987 24.7128 10.5881 21.9444C14.4814 22.2806 17.4714 21.5104 17.8112 21.398C18.5974 21.1357 23.0458 20.5498 23.7651 14.4729ZM10.9718 20.173C10.9718 20.173 8.50764 23.2318 7.74132 24.0259C7.49041 24.284 7.21545 24.2601 7.21964 23.748C7.21964 23.4119 7.23845 19.5684 7.23845 19.5684C2.41576 18.1925 2.70012 13.0179 2.75239 10.3109C2.80467 7.60289 3.3023 5.38505 4.77013 3.89158C8.15637 0.730822 17.7087 1.43749 20.1425 3.71465C23.1179 6.34046 22.0589 13.7589 22.0651 14.0118C21.4535 19.0844 17.8488 19.406 17.186 19.6256C16.9027 19.7193 14.2733 20.3926 10.9718 20.173Z" fill="#24242E"/>
<path d="M12.3184 4C11.8939 4 11.8939 4.61505 12.3184 4.62017C15.6123 4.64375 18.3251 6.77796 18.3549 10.6927C18.3549 11.1058 19.0055 11.1007 19 10.6876H18.9989C18.9636 6.46941 16.0016 4.02358 12.3184 4Z" fill="#24242E"/>
<path d="M16.4534 10.6679C16.445 11.0977 16.9942 11.1183 16.9988 10.683C17.0445 8.23239 15.7401 6.21379 13.2887 6.00102C12.9298 5.97078 12.8925 6.6242 13.2505 6.65444C15.3764 6.84129 16.4963 8.52184 16.4534 10.6679Z" fill="#24242E"/>
<path d="M15.5591 13.3909C15.0509 13.0826 14.5334 13.2744 14.3194 13.5774L13.8719 14.1843C13.6445 14.4926 13.2197 14.4516 13.2197 14.4516C10.1189 13.5925 9.28974 10.1925 9.28974 10.1925C9.28974 10.1925 9.25167 9.7322 9.53561 9.48534L10.0953 9.00025C10.3751 8.7674 10.552 8.20685 10.2671 7.65601C9.50578 6.21474 8.99448 5.7178 8.7342 5.33619C8.46054 4.97722 8.04903 4.89637 7.62106 5.13892H7.6118C6.72191 5.68438 5.74766 6.70523 6.05938 7.75626C6.59126 8.86442 7.56859 12.397 10.6837 15.0661C12.1477 16.3284 14.4645 17.6219 15.448 17.9205L15.4572 17.9356C16.4263 18.2741 17.3687 17.2134 17.8718 16.2529V16.2454C18.095 15.7808 18.0209 15.3409 17.6948 15.0531C17.1167 14.4624 16.2443 13.8102 15.5591 13.3909Z" fill="#24242E"/>
<path d="M13.2352 8.73167C14.0575 8.79932 14.4563 9.40578 14.4991 10.6513C14.5145 11.1382 15.0151 11.1044 14.9997 10.6175C14.9449 8.99141 14.3442 8.08534 13.2625 8.00077C12.9331 7.97299 12.9023 8.70388 13.2352 8.73167Z" fill="#24242E"/>
</svg>
