<svg width="22" height="22" viewBox="0 0 22 22" fill="none" xmlns="http://www.w3.org/2000/svg">
<path d="M10.9998 17.9647C10.9998 17.9647 3.04004 13.5326 3.04004 8.15071C3.04004 7.1993 3.37156 6.27727 3.97819 5.5415C4.58483 4.80573 5.4291 4.30167 6.36737 4.11508C7.30564 3.9285 8.27995 4.07091 9.12452 4.51808C9.9691 4.96526 10.6318 5.68958 10.9998 6.56781C11.3678 5.68958 12.0305 4.96526 12.8751 4.51808C13.7196 4.07091 14.6939 3.9285 15.6322 4.11508C16.5705 4.30167 17.4148 4.80573 18.0214 5.5415C18.628 6.27727 18.9595 7.1993 18.9595 8.15071C18.9595 13.5326 10.9998 17.9647 10.9998 17.9647Z" stroke="white" stroke-width="2" stroke-linecap="round" stroke-linejoin="round"/>
</svg>
